<?xml version="1.0" encoding="utf-8"?>
<!-- Generator: Adobe Illustrator 16.0.0, SVG Export Plug-In . SVG Version: 6.00 Build 0)  -->
<!DOCTYPE svg PUBLIC "-//W3C//DTD SVG 1.1//EN" "http://www.w3.org/Graphics/SVG/1.1/DTD/svg11.dtd">
<svg version="1.1" id="Layer_1" xmlns="http://www.w3.org/2000/svg" xmlns:xlink="http://www.w3.org/1999/xlink" x="0px" y="0px"
	 width="480px" height="320px" viewBox="0 0 480 320" enable-background="new 0 0 480 320" xml:space="preserve">
<rect fill="none" width="480" height="320"/>
<g>
	<defs>
		<path id="SVGID_1_" d="M203.333,124.417c-1.545,1.892-5.51,5.808-2.829,13.55c2.68,7.745,39.259,12.249,44.587,11.831
			c4.805-0.375,5.42-0.951,5.42-0.951l5.236-10.134l-7.975-12.952l-2.596,3.294c0,0-4.244,2.849-14.892,0.724
			c-8.786-1.754-15.039-5.957-18.763-6.85c-0.953-0.229-1.885-0.329-2.762-0.329C206.212,122.599,204.129,123.442,203.333,124.417"
			/>
	</defs>
	<clipPath id="SVGID_2_">
		<use xlink:href="#SVGID_1_"  overflow="visible"/>
	</clipPath>
	
		<linearGradient id="SVGID_3_" gradientUnits="userSpaceOnUse" x1="24.8755" y1="304.9961" x2="25.8755" y2="304.9961" gradientTransform="matrix(56.1517 0 0 -56.1517 -1197.2168 17262.4844)">
		<stop  offset="0" style="stop-color:#542060"/>
		<stop  offset="0.485" style="stop-color:#B01F61"/>
		<stop  offset="0.5995" style="stop-color:#9E2061"/>
		<stop  offset="0.8376" style="stop-color:#722161"/>
		<stop  offset="1" style="stop-color:#542060"/>
	</linearGradient>
	<rect x="197.824" y="122.599" clip-path="url(#SVGID_2_)" fill="url(#SVGID_3_)" width="57.924" height="27.616"/>
</g>
<g>
	<defs>
		<path id="SVGID_4_" d="M203.333,124.417c-1.545,1.892-5.51,5.808-2.829,13.55c2.68,7.745,39.259,12.249,44.587,11.831
			c4.805-0.375,5.42-0.951,5.42-0.951l1.672-1.112l1.02-12.5c0,0-4.447,7.232-22.218,3.067c-8.723-2.045-15.962-5.272-19.684-6.166
			c-3.447-0.827-6.423-7.86-7.695-7.861C203.504,124.274,203.414,124.319,203.333,124.417"/>
	</defs>
	<clipPath id="SVGID_5_">
		<use xlink:href="#SVGID_4_"  overflow="visible"/>
	</clipPath>
	
		<linearGradient id="SVGID_6_" gradientUnits="userSpaceOnUse" x1="24.8696" y1="304.9961" x2="25.8692" y2="304.9961" gradientTransform="matrix(53.6068 0 0 -53.6068 -1133.5908 16487.1445)">
		<stop  offset="0" style="stop-color:#542060"/>
		<stop  offset="0.485" style="stop-color:#822166"/>
		<stop  offset="0.7145" style="stop-color:#6F2164"/>
		<stop  offset="1" style="stop-color:#542060"/>
	</linearGradient>
	<rect x="197.824" y="124.274" clip-path="url(#SVGID_5_)" fill="url(#SVGID_6_)" width="55.379" height="25.941"/>
</g>
<g>
	<defs>
		<path id="SVGID_7_" d="M204.375,123.523c-2.978,1.788-4.169,4.319-4.914,8.19c-0.745,3.872-0.297,6.999,2.234,11.466
			c2.531,4.468,11.591,8.889,22.313,18.122c10.723,9.232,9.404,19.85,9.404,19.85s8.171-5.063,10.595-12.615
			c2.092-6.514,2.371-13.068-3.746-21.633c-5.305-7.427-16.375-11.467-27.428-15.782c-7.244-2.828-6.821-8.937-1.312-8.192
			c0,0-1.361-0.389-3.084-0.389C207.146,122.539,205.651,122.758,204.375,123.523"/>
	</defs>
	<clipPath id="SVGID_8_">
		<use xlink:href="#SVGID_7_"  overflow="visible"/>
	</clipPath>
	
		<linearGradient id="SVGID_9_" gradientUnits="userSpaceOnUse" x1="24.8486" y1="305.0049" x2="25.8486" y2="305.0049" gradientTransform="matrix(46.2211 0 0 -46.2211 -949.4023 14249.2686)">
		<stop  offset="0" style="stop-color:#EFE353"/>
		<stop  offset="0.1138" style="stop-color:#EFD84E"/>
		<stop  offset="0.3391" style="stop-color:#EEBA41"/>
		<stop  offset="0.6549" style="stop-color:#EE8930"/>
		<stop  offset="1" style="stop-color:#EF4523"/>
	</linearGradient>
	<rect x="198.716" y="122.183" clip-path="url(#SVGID_8_)" fill="url(#SVGID_9_)" width="47.663" height="58.967"/>
</g>
<g>
	<defs>
		<path id="SVGID_10_" d="M204.375,123.523c-2.978,1.788-4.169,4.319-4.914,8.19c-0.745,3.872-0.297,6.999,2.234,11.466
			c2.531,4.468,11.241,8.889,21.963,18.122c10.722,9.232,9.754,19.85,9.754,19.85s4.02-2.848,5.955-9.697
			c1.935-6.85,2.091-13.445-3.386-20.746c-7.286-9.71-18.38-8.892-28.446-16.719c-4.352-3.384-5.689-12.819,3.987-11.061
			c0,0-1.361-0.389-3.084-0.389C207.146,122.539,205.651,122.758,204.375,123.523"/>
	</defs>
	<clipPath id="SVGID_11_">
		<use xlink:href="#SVGID_10_"  overflow="visible"/>
	</clipPath>
	
		<linearGradient id="SVGID_12_" gradientUnits="userSpaceOnUse" x1="24.8311" y1="305.0166" x2="25.8315" y2="305.0166" gradientTransform="matrix(41.4563 0 0 -41.4563 -830.2861 12796.0234)">
		<stop  offset="0" style="stop-color:#EFE353"/>
		<stop  offset="0.1964" style="stop-color:#EEC044"/>
		<stop  offset="0.4824" style="stop-color:#EE9033"/>
		<stop  offset="0.7214" style="stop-color:#EE6C28"/>
		<stop  offset="0.9007" style="stop-color:#EF5124"/>
		<stop  offset="1" style="stop-color:#EF4523"/>
	</linearGradient>
	<rect x="198.716" y="121.17" clip-path="url(#SVGID_11_)" fill="url(#SVGID_12_)" width="42.743" height="59.98"/>
</g>
<g>
	<defs>
		<path id="SVGID_13_" d="M204.29,123.501c-2.673,1.586-4.39,4.124-5.134,7.995c-0.745,3.872-0.264,7.382,2.54,11.683
			c3.633,5.571,11.265,9.247,21.986,18.479c10.722,9.23,9.731,19.492,9.731,19.492s0.954-1.127,2.683-7.559
			c1.725-6.416-0.391-12.057-6.114-16.913c-10.19-8.647-24.013-8.742-28.568-20.231c-1.864-4.702-1.328-16.129,10.109-13.52
			c0,0-1.406-0.397-3.168-0.397C207.054,122.531,205.558,122.747,204.29,123.501"/>
	</defs>
	<clipPath id="SVGID_14_">
		<use xlink:href="#SVGID_13_"  overflow="visible"/>
	</clipPath>
	
		<linearGradient id="SVGID_15_" gradientUnits="userSpaceOnUse" x1="24.8149" y1="305.0293" x2="25.8149" y2="305.0293" gradientTransform="matrix(37.8377 0 0 -37.8377 -740.0996 11692.3369)">
		<stop  offset="0" style="stop-color:#EFE353"/>
		<stop  offset="0.0898" style="stop-color:#EFC747"/>
		<stop  offset="0.2059" style="stop-color:#EEA73B"/>
		<stop  offset="0.3262" style="stop-color:#EE8C31"/>
		<stop  offset="0.4489" style="stop-color:#EE762B"/>
		<stop  offset="0.5748" style="stop-color:#EE6327"/>
		<stop  offset="0.7052" style="stop-color:#EF5324"/>
		<stop  offset="0.8429" style="stop-color:#EF4823"/>
		<stop  offset="1" style="stop-color:#EF4523"/>
	</linearGradient>
	<rect x="198.411" y="120.319" clip-path="url(#SVGID_14_)" fill="url(#SVGID_15_)" width="39.409" height="60.832"/>
</g>
<g>
	<defs>
		<path id="SVGID_16_" d="M198.716,104.761c6.255,11.019,36.931,18.614,45.567,26.357c8.637,7.743,7.867,15.644,6.229,17.728
			c0,0,6.578-2.971,10.15-13.692c3.574-10.722,2.234-21.607-5.807-29.35c-8.041-7.744-29.269-13.887-39.907-21.443
			c-7.188-5.105-11.913-12.509-11.913-12.509S192.462,93.742,198.716,104.761"/>
	</defs>
	<clipPath id="SVGID_17_">
		<use xlink:href="#SVGID_16_"  overflow="visible"/>
	</clipPath>
	
		<linearGradient id="SVGID_18_" gradientUnits="userSpaceOnUse" x1="24.8936" y1="305" x2="25.8936" y2="305" gradientTransform="matrix(65.7953 0 0 -65.7953 -1441.1191 20177.9258)">
		<stop  offset="0" style="stop-color:#85CFC4"/>
		<stop  offset="1" style="stop-color:#103C5C"/>
	</linearGradient>
	<rect x="192.462" y="71.852" clip-path="url(#SVGID_17_)" fill="url(#SVGID_18_)" width="71.774" height="76.994"/>
</g>
<g>
	<defs>
		<path id="SVGID_19_" d="M198.716,104.761c6.255,11.019,36.931,18.614,45.567,26.357c8.637,7.743,7.867,15.644,6.229,17.728
			c0,0,6.582-2.971,10.15-13.692c1.916-5.751-3.703-14.282-12.846-20.687c-10.541-7.384-22.957-7.453-36.362-17.645
			c-10.897-8.286-8.419-24.97-8.419-24.97S192.462,93.742,198.716,104.761"/>
	</defs>
	<clipPath id="SVGID_20_">
		<use xlink:href="#SVGID_19_"  overflow="visible"/>
	</clipPath>
	
		<linearGradient id="SVGID_21_" gradientUnits="userSpaceOnUse" x1="24.8911" y1="305" x2="25.8911" y2="305" gradientTransform="matrix(64.2982 0 0 -64.2982 -1403.7227 19721.3398)">
		<stop  offset="0" style="stop-color:#85CFC4"/>
		<stop  offset="0.0225" style="stop-color:#81C6BE"/>
		<stop  offset="0.2869" style="stop-color:#568A95"/>
		<stop  offset="0.5262" style="stop-color:#38647A"/>
		<stop  offset="0.7323" style="stop-color:#234E69"/>
		<stop  offset="0.8971" style="stop-color:#154060"/>
		<stop  offset="1" style="stop-color:#103C5C"/>
	</linearGradient>
	<rect x="192.462" y="71.852" clip-path="url(#SVGID_20_)" fill="url(#SVGID_21_)" width="70.116" height="76.994"/>
</g>
<g>
	<path d="M143.553,197.836c2.193-0.448,5.332-0.697,8.322-0.697c4.635,0,7.625,0.847,9.718,2.74
		c1.695,1.495,2.642,3.788,2.642,6.379c0,4.436-2.791,7.376-6.329,8.572v0.149c2.591,0.897,4.136,3.289,4.934,6.777
		c1.096,4.685,1.894,7.924,2.591,9.22h-4.485c-0.548-0.947-1.296-3.837-2.243-8.023c-0.997-4.635-2.791-6.379-6.728-6.528h-4.086
		v14.552h-4.335V197.836z M147.888,213.136h4.436c4.635,0,7.575-2.542,7.575-6.379c0-4.336-3.14-6.229-7.724-6.279
		c-2.093,0-3.588,0.199-4.286,0.398V213.136z"/>
	<path d="M189.698,215.229h-13.057v12.11h14.552v3.638h-18.887v-33.589h18.14v3.638h-13.805v10.615h13.057V215.229z"/>
	<path d="M198.816,197.388h4.335v16.196h0.149c0.897-1.296,1.794-2.491,2.642-3.588l10.266-12.608h5.382l-12.16,14.253
		l13.107,19.336h-5.133l-11.063-16.495l-3.189,3.688v12.808h-4.335V197.388z"/>
	<path d="M227.768,197.388h4.335v29.951h14.354v3.638h-18.689V197.388z"/>
	<path d="M258.664,220.411l-3.488,10.565h-4.486l11.412-33.589h5.232l11.463,33.589h-4.635l-3.588-10.565H258.664z M269.678,217.022
		l-3.289-9.668c-0.748-2.192-1.246-4.186-1.744-6.13h-0.102c-0.498,1.994-1.045,4.037-1.693,6.08l-3.289,9.718H269.678z"/>
	<path d="M313.979,216.226c-0.25-4.685-0.549-10.316-0.498-14.502h-0.15c-1.146,3.937-2.541,8.123-4.236,12.758l-5.93,16.296h-3.289
		l-5.432-15.997c-1.596-4.734-2.941-9.07-3.889-13.057h-0.1c-0.1,4.186-0.348,9.817-0.646,14.851l-0.898,14.402h-4.135l2.342-33.589
		h5.531l5.73,16.246c1.396,4.137,2.543,7.824,3.389,11.313h0.15c0.848-3.389,2.043-7.076,3.539-11.313l5.98-16.246h5.531
		l2.092,33.589h-4.234L313.979,216.226z"/>
</g>
<g>
	<path fill="#F7941E" d="M142.163,245.271v-7.021h1.912c0.967,0,1.697,0.294,2.191,0.882c0.495,0.588,0.742,1.456,0.742,2.604
		c0,1.176-0.249,2.059-0.746,2.649c-0.498,0.591-1.242,0.887-2.233,0.887H142.163z M143.343,244.111h0.643
		c0.644,0,1.109-0.187,1.395-0.559s0.429-0.979,0.429-1.817c0-0.796-0.149-1.381-0.446-1.755s-0.762-0.561-1.395-0.561h-0.626
		V244.111z"/>
	<path fill="#F7941E" d="M150.836,245.271v-7.021h4.063v1.142h-2.891v1.659h2.105v1.123h-2.105v1.9h3.017v1.197H150.836z"/>
	<path fill="#F7941E" d="M158.263,243.688l1.067-0.533c0.166,0.374,0.35,0.646,0.553,0.818c0.203,0.171,0.443,0.257,0.721,0.257
		c0.313,0,0.562-0.08,0.744-0.24c0.182-0.161,0.273-0.378,0.273-0.651c0-0.217-0.067-0.398-0.202-0.544
		c-0.134-0.146-0.376-0.292-0.727-0.437c-0.047-0.022-0.116-0.051-0.206-0.085c-0.614-0.252-1.041-0.465-1.282-0.642
		c-0.238-0.17-0.42-0.387-0.546-0.65s-0.189-0.563-0.189-0.896c0-0.566,0.188-1.026,0.565-1.38c0.377-0.354,0.869-0.53,1.477-0.53
		c0.532,0,0.976,0.129,1.33,0.387s0.614,0.64,0.779,1.146l-1.067,0.438c-0.132-0.314-0.288-0.543-0.467-0.686
		c-0.179-0.144-0.4-0.215-0.664-0.215c-0.255,0-0.456,0.066-0.603,0.2s-0.221,0.315-0.221,0.545c0,0.355,0.36,0.691,1.08,1.009
		c0.221,0.098,0.395,0.177,0.521,0.236c0.602,0.286,1.012,0.578,1.229,0.877c0.217,0.299,0.326,0.688,0.326,1.169
		c0,0.648-0.189,1.157-0.567,1.528c-0.378,0.371-0.898,0.557-1.559,0.557c-0.574,0-1.061-0.142-1.46-0.425
		C158.769,244.658,158.467,244.24,158.263,243.688z"/>
	<path fill="#F7941E" d="M166.639,245.271v-7.021h1.185v7.021H166.639z"/>
	<path fill="#F7941E" d="M175.805,245.271l-0.063-0.735c-0.196,0.292-0.429,0.508-0.698,0.646c-0.269,0.139-0.587,0.208-0.954,0.208
		c-0.746,0-1.329-0.327-1.75-0.981c-0.421-0.653-0.632-1.561-0.632-2.721c0-1.109,0.228-1.974,0.683-2.593
		c0.456-0.62,1.091-0.93,1.906-0.93c0.561,0,1.029,0.152,1.406,0.458c0.376,0.305,0.644,0.745,0.8,1.32l-1.067,0.297
		c-0.126-0.33-0.284-0.575-0.475-0.735c-0.19-0.161-0.42-0.241-0.689-0.241c-0.448,0-0.789,0.212-1.021,0.635
		s-0.349,1.046-0.349,1.869c0,0.793,0.116,1.4,0.347,1.825s0.561,0.637,0.99,0.637c0.336,0,0.614-0.126,0.834-0.377
		c0.22-0.252,0.355-0.6,0.405-1.043h-1.172v-1.103h2.333v3.564H175.805z"/>
	<path fill="#F7941E" d="M180.571,245.271v-7.021h1.256l1.799,3.527c0.137,0.273,0.265,0.55,0.382,0.83
		c0.118,0.279,0.225,0.563,0.323,0.849c-0.031-0.207-0.053-0.43-0.067-0.667c-0.014-0.237-0.021-0.491-0.021-0.762v-3.777h1.092
		v7.021h-1.092l-1.954-3.621c-0.106-0.205-0.219-0.45-0.338-0.736s-0.242-0.604-0.368-0.952c0.028,0.191,0.048,0.402,0.061,0.632
		s0.019,0.495,0.019,0.797v3.881H180.571z"/>
	<path fill="#F7941E" d="M194.554,243.263v-1.042h1.929v1.042H194.554z"/>
	<path fill="#F7941E" d="M205.764,245.271v-7.021h2.235c0.737,0,1.286,0.172,1.647,0.517c0.361,0.344,0.542,0.867,0.542,1.567
		c0,0.686-0.176,1.207-0.529,1.563c-0.353,0.357-0.868,0.535-1.546,0.535h-1.16v2.839H205.764z M206.953,241.32h0.874
		c0.431,0,0.736-0.076,0.914-0.227c0.178-0.151,0.267-0.404,0.267-0.76c0-0.358-0.089-0.612-0.267-0.764
		c-0.178-0.15-0.483-0.227-0.914-0.227h-0.874V241.32z"/>
	<path fill="#F7941E" d="M213.963,245.271v-7.021h2.118c0.792,0,1.382,0.172,1.769,0.517c0.387,0.344,0.58,0.871,0.58,1.582
		c0,0.456-0.099,0.836-0.298,1.141c-0.199,0.306-0.484,0.516-0.857,0.632l1.387,3.15h-1.265l-1.206-2.848h-1.076v2.848H213.963z
		 M215.115,241.311h1.025c0.378,0,0.656-0.078,0.834-0.235c0.178-0.157,0.267-0.404,0.267-0.741c0-0.333-0.089-0.578-0.267-0.735
		c-0.178-0.157-0.456-0.235-0.834-0.235h-1.025V241.311z"/>
	<path fill="#F7941E" d="M222.57,245.271v-7.021h1.185v7.021H222.57z"/>
	<path fill="#F7941E" d="M228,245.271v-7.021h1.256l1.799,3.527c0.137,0.273,0.265,0.55,0.382,0.83
		c0.118,0.279,0.225,0.563,0.323,0.849c-0.031-0.207-0.053-0.43-0.067-0.667c-0.014-0.237-0.021-0.491-0.021-0.762v-3.777h1.092
		v7.021h-1.092l-1.954-3.621c-0.106-0.205-0.219-0.45-0.338-0.736s-0.242-0.604-0.368-0.952c0.028,0.191,0.048,0.402,0.061,0.632
		s0.019,0.495,0.019,0.797v3.881H228z"/>
	<path fill="#F7941E" d="M238.015,245.271v-5.861h-1.643v-1.16h4.475v1.16h-1.643v5.861H238.015z"/>
	<path fill="#F7941E" d="M249.549,243.263v-1.042h1.928v1.042H249.549z"/>
	<path fill="#F7941E" d="M260.291,243.688l1.067-0.533c0.165,0.374,0.35,0.646,0.553,0.818c0.203,0.171,0.443,0.257,0.721,0.257
		c0.313,0,0.562-0.08,0.743-0.24c0.183-0.161,0.273-0.378,0.273-0.651c0-0.217-0.066-0.398-0.201-0.544
		c-0.135-0.146-0.377-0.292-0.728-0.437c-0.048-0.022-0.116-0.051-0.206-0.085c-0.613-0.252-1.041-0.465-1.281-0.642
		c-0.238-0.17-0.42-0.387-0.547-0.65c-0.125-0.264-0.188-0.563-0.188-0.896c0-0.566,0.188-1.026,0.565-1.38s0.869-0.53,1.477-0.53
		c0.532,0,0.976,0.129,1.33,0.387s0.614,0.64,0.779,1.146l-1.066,0.438c-0.133-0.314-0.288-0.543-0.467-0.686
		c-0.18-0.144-0.4-0.215-0.664-0.215c-0.255,0-0.456,0.066-0.604,0.2c-0.146,0.134-0.221,0.315-0.221,0.545
		c0,0.355,0.36,0.691,1.08,1.009c0.222,0.098,0.396,0.177,0.521,0.236c0.602,0.286,1.012,0.578,1.229,0.877s0.326,0.688,0.326,1.169
		c0,0.648-0.189,1.157-0.567,1.528s-0.897,0.557-1.56,0.557c-0.574,0-1.061-0.142-1.459-0.425
		C260.797,244.658,260.496,244.24,260.291,243.688z"/>
	<path fill="#F7941E" d="M268.167,241.777c0-1.135,0.229-2.021,0.688-2.657c0.46-0.637,1.096-0.955,1.908-0.955
		s1.449,0.318,1.91,0.955s0.691,1.522,0.691,2.657c0,1.129-0.231,2.013-0.693,2.652c-0.463,0.64-1.099,0.96-1.908,0.96
		c-0.807,0-1.441-0.32-1.903-0.96S268.167,242.906,268.167,241.777z M269.36,241.777c0,0.795,0.119,1.398,0.357,1.809
		c0.237,0.41,0.587,0.615,1.046,0.615s0.809-0.205,1.047-0.615s0.357-1.014,0.357-1.809c0-0.802-0.119-1.41-0.357-1.825
		s-0.588-0.622-1.047-0.622s-0.809,0.207-1.046,0.622C269.479,240.367,269.36,240.976,269.36,241.777z"/>
	<path fill="#F7941E" d="M277.119,245.271v-7.021h1.197v5.824h2.639v1.197H277.119z"/>
	<path fill="#F7941E" d="M284.578,242.692v-4.442h1.177v4.499c0,0.521,0.094,0.898,0.282,1.132c0.188,0.232,0.49,0.349,0.907,0.349
		c0.442,0,0.759-0.112,0.947-0.337s0.284-0.606,0.284-1.144v-4.499h1.143v4.654c0,0.799-0.205,1.412-0.615,1.842
		c-0.41,0.429-0.997,0.644-1.759,0.644c-0.796,0-1.39-0.223-1.78-0.668C284.773,244.277,284.578,243.601,284.578,242.692z"/>
	<path fill="#F7941E" d="M294.576,245.271v-5.861h-1.643v-1.16h4.475v1.16h-1.643v5.861H294.576z"/>
	<path fill="#F7941E" d="M301.146,245.271v-7.021h1.185v7.021H301.146z"/>
	<path fill="#F7941E" d="M306.215,241.777c0-1.135,0.229-2.021,0.688-2.657s1.096-0.955,1.907-0.955c0.813,0,1.449,0.318,1.91,0.955
		s0.691,1.522,0.691,2.657c0,1.129-0.23,2.013-0.693,2.652c-0.462,0.64-1.098,0.96-1.908,0.96c-0.807,0-1.44-0.32-1.902-0.96
		C306.445,243.79,306.215,242.906,306.215,241.777z M307.408,241.777c0,0.795,0.119,1.398,0.357,1.809
		c0.237,0.41,0.586,0.615,1.045,0.615c0.46,0,0.809-0.205,1.047-0.615s0.357-1.014,0.357-1.809c0-0.802-0.119-1.41-0.357-1.825
		s-0.587-0.622-1.047-0.622c-0.459,0-0.808,0.207-1.045,0.622C307.527,240.367,307.408,240.976,307.408,241.777z"/>
	<path fill="#F7941E" d="M315.158,245.271v-7.021h1.256l1.799,3.527c0.137,0.273,0.265,0.55,0.383,0.83
		c0.117,0.279,0.225,0.563,0.322,0.849c-0.03-0.207-0.053-0.43-0.066-0.667s-0.021-0.491-0.021-0.762v-3.777h1.093v7.021h-1.093
		l-1.953-3.621c-0.107-0.205-0.22-0.45-0.339-0.736s-0.241-0.604-0.368-0.952c0.028,0.191,0.049,0.402,0.062,0.632
		s0.019,0.495,0.019,0.797v3.881H315.158z"/>
</g>
</svg>
