<?xml version="1.0" encoding="utf-8"?>
<!-- Generator: Adobe Illustrator 16.0.0, SVG Export Plug-In . SVG Version: 6.00 Build 0)  -->
<!DOCTYPE svg PUBLIC "-//W3C//DTD SVG 1.1//EN" "http://www.w3.org/Graphics/SVG/1.1/DTD/svg11.dtd">
<svg version="1.1" id="Layer_1" xmlns="http://www.w3.org/2000/svg" xmlns:xlink="http://www.w3.org/1999/xlink" x="0px" y="0px"
	 width="1680px" height="1050px" viewBox="0 0 1680 1050" enable-background="new 0 0 1680 1050" xml:space="preserve">
<rect fill="none" width="1680" height="1050"/>
<g>
	<defs>
		<path id="SVGID_1_" d="M719.688,408.243c-5.069,6.208-18.079,19.058-9.283,44.46c8.794,25.412,128.817,40.19,146.302,38.819
			c15.766-1.23,17.784-3.121,17.784-3.121l17.183-33.253l-26.167-42.499l-8.518,10.81c0,0-13.925,9.347-48.864,2.375
			c-28.83-5.755-49.347-19.546-61.567-22.475c-3.127-0.751-6.185-1.08-9.062-1.08C729.134,402.278,722.3,405.044,719.688,408.243"/>
	</defs>
	<clipPath id="SVGID_2_">
		<use xlink:href="#SVGID_1_"  overflow="visible"/>
	</clipPath>
	
		<linearGradient id="SVGID_3_" gradientUnits="userSpaceOnUse" x1="623.2344" y1="670.9551" x2="626.515" y2="670.9551" gradientTransform="matrix(56.1517 0 0 -56.1517 -34288.2188 38122.8477)">
		<stop  offset="0" style="stop-color:#542060"/>
		<stop  offset="0.485" style="stop-color:#B01F61"/>
		<stop  offset="0.5995" style="stop-color:#9E2061"/>
		<stop  offset="0.8376" style="stop-color:#722161"/>
		<stop  offset="1" style="stop-color:#542060"/>
	</linearGradient>
	<rect x="701.609" y="402.278" clip-path="url(#SVGID_2_)" fill="url(#SVGID_3_)" width="190.064" height="90.616"/>
</g>
<g>
	<defs>
		<path id="SVGID_4_" d="M719.688,408.243c-5.069,6.208-18.079,19.058-9.283,44.46c8.794,25.412,128.817,40.19,146.302,38.819
			c15.766-1.23,17.784-3.121,17.784-3.121l5.486-3.649l3.345-41.016c0,0-14.592,23.729-72.901,10.063
			c-28.622-6.709-52.375-17.298-64.589-20.232c-11.31-2.713-21.075-25.791-25.249-25.793
			C720.249,407.774,719.951,407.921,719.688,408.243"/>
	</defs>
	<clipPath id="SVGID_5_">
		<use xlink:href="#SVGID_4_"  overflow="visible"/>
	</clipPath>
	
		<linearGradient id="SVGID_6_" gradientUnits="userSpaceOnUse" x1="623.1504" y1="670.9639" x2="626.4311" y2="670.9639" gradientTransform="matrix(53.6068 0 0 -53.6068 -32697.6602 36418.6172)">
		<stop  offset="0" style="stop-color:#542060"/>
		<stop  offset="0.485" style="stop-color:#822166"/>
		<stop  offset="0.7145" style="stop-color:#6F2164"/>
		<stop  offset="1" style="stop-color:#542060"/>
	</linearGradient>
	<rect x="701.609" y="407.774" clip-path="url(#SVGID_5_)" fill="url(#SVGID_6_)" width="181.713" height="85.12"/>
</g>
<g>
	<defs>
		<path id="SVGID_7_" d="M723.107,405.31c-9.771,5.867-13.679,14.171-16.124,26.873c-2.445,12.706-0.974,22.966,7.33,37.624
			c8.306,14.66,38.034,29.166,73.215,59.462c35.184,30.294,30.858,65.131,30.858,65.131s26.812-16.611,34.765-41.394
			c6.864-21.373,7.78-42.879-12.29-70.984c-17.406-24.369-53.732-37.625-89.997-51.784c-23.77-9.28-22.381-29.325-4.305-26.879
			c0,0-4.465-1.277-10.12-1.277C732.199,402.081,727.293,402.799,723.107,405.31"/>
	</defs>
	<clipPath id="SVGID_8_">
		<use xlink:href="#SVGID_7_"  overflow="visible"/>
	</clipPath>
	
		<linearGradient id="SVGID_9_" gradientUnits="userSpaceOnUse" x1="622.8311" y1="670.416" x2="626.1123" y2="670.416" gradientTransform="matrix(46.2211 0 0 -46.2211 -28082.0352 31484.9531)">
		<stop  offset="0" style="stop-color:#EFE353"/>
		<stop  offset="0.1138" style="stop-color:#EFD84E"/>
		<stop  offset="0.3391" style="stop-color:#EEBA41"/>
		<stop  offset="0.6549" style="stop-color:#EE8930"/>
		<stop  offset="1" style="stop-color:#EF4523"/>
	</linearGradient>
	<rect x="704.538" y="400.913" clip-path="url(#SVGID_8_)" fill="url(#SVGID_9_)" width="156.393" height="193.486"/>
</g>
<g>
	<defs>
		<path id="SVGID_10_" d="M723.107,405.31c-9.771,5.867-13.679,14.171-16.124,26.873c-2.445,12.706-0.974,22.966,7.33,37.624
			c8.306,14.66,36.886,29.166,72.067,59.462c35.181,30.294,32.005,65.131,32.005,65.131s13.189-9.344,19.54-31.819
			c6.349-22.475,6.862-44.115-11.11-68.071c-23.906-31.862-60.311-29.175-93.339-54.858c-14.28-11.103-18.667-42.062,13.082-36.292
			c0,0-4.465-1.277-10.12-1.277C732.199,402.081,727.293,402.799,723.107,405.31"/>
	</defs>
	<clipPath id="SVGID_11_">
		<use xlink:href="#SVGID_10_"  overflow="visible"/>
	</clipPath>
	
		<linearGradient id="SVGID_12_" gradientUnits="userSpaceOnUse" x1="622.583" y1="670.5029" x2="625.8649" y2="670.5029" gradientTransform="matrix(41.4563 0 0 -41.4563 -25104.0898 28292.5859)">
		<stop  offset="0" style="stop-color:#EFE353"/>
		<stop  offset="0.1964" style="stop-color:#EEC044"/>
		<stop  offset="0.4824" style="stop-color:#EE9033"/>
		<stop  offset="0.7214" style="stop-color:#EE6C28"/>
		<stop  offset="0.9007" style="stop-color:#EF5124"/>
		<stop  offset="1" style="stop-color:#EF4523"/>
	</linearGradient>
	<rect x="704.538" y="397.589" clip-path="url(#SVGID_11_)" fill="url(#SVGID_12_)" width="140.249" height="196.811"/>
</g>
<g>
	<defs>
		<path id="SVGID_13_" d="M722.825,405.237c-8.771,5.204-14.405,13.532-16.845,26.234c-2.445,12.705-0.867,24.222,8.333,38.335
			c11.922,18.281,36.964,30.342,72.143,60.635c35.183,30.287,31.93,63.958,31.93,63.958s3.13-3.697,8.802-24.802
			c5.659-21.052-1.282-39.561-20.061-55.494c-33.436-28.375-78.793-28.685-93.738-66.383c-6.117-15.429-4.358-52.924,33.17-44.362
			c0,0-4.613-1.303-10.395-1.303C731.895,402.056,726.986,402.764,722.825,405.237"/>
	</defs>
	<clipPath id="SVGID_14_">
		<use xlink:href="#SVGID_13_"  overflow="visible"/>
	</clipPath>
	
		<linearGradient id="SVGID_15_" gradientUnits="userSpaceOnUse" x1="622.3345" y1="670.5879" x2="625.6158" y2="670.5879" gradientTransform="matrix(37.8377 0 0 -37.8377 -22842.7129 25868.0938)">
		<stop  offset="0" style="stop-color:#EFE353"/>
		<stop  offset="0.0898" style="stop-color:#EFC747"/>
		<stop  offset="0.2059" style="stop-color:#EEA73B"/>
		<stop  offset="0.3262" style="stop-color:#EE8C31"/>
		<stop  offset="0.4489" style="stop-color:#EE762B"/>
		<stop  offset="0.5748" style="stop-color:#EE6327"/>
		<stop  offset="0.7052" style="stop-color:#EF5324"/>
		<stop  offset="0.8429" style="stop-color:#EF4823"/>
		<stop  offset="1" style="stop-color:#EF4523"/>
	</linearGradient>
	<rect x="703.535" y="394.796" clip-path="url(#SVGID_14_)" fill="url(#SVGID_15_)" width="129.311" height="199.603"/>
</g>
<g>
	<defs>
		<path id="SVGID_16_" d="M704.538,343.748c20.525,36.154,121.179,61.076,149.517,86.483c28.339,25.406,25.813,51.332,20.437,58.17
			c0,0,21.585-9.748,33.307-44.928c11.728-35.181,7.331-70.898-19.054-96.304c-26.385-25.41-96.039-45.567-130.943-70.361
			c-23.586-16.75-39.09-41.044-39.09-41.044S684.017,307.592,704.538,343.748"/>
	</defs>
	<clipPath id="SVGID_17_">
		<use xlink:href="#SVGID_16_"  overflow="visible"/>
	</clipPath>
	
		<linearGradient id="SVGID_18_" gradientUnits="userSpaceOnUse" x1="623.395" y1="671.7217" x2="626.6761" y2="671.7217" gradientTransform="matrix(65.7953 0 0 -65.7953 -40318.3203 44558.2227)">
		<stop  offset="0" style="stop-color:#85CFC4"/>
		<stop  offset="1" style="stop-color:#103C5C"/>
	</linearGradient>
	<rect x="684.017" y="235.765" clip-path="url(#SVGID_17_)" fill="url(#SVGID_18_)" width="235.508" height="252.637"/>
</g>
<g>
	<defs>
		<path id="SVGID_19_" d="M704.538,343.748c20.525,36.154,121.179,61.076,149.517,86.483c28.339,25.406,25.813,51.332,20.437,58.17
			c0,0,21.598-9.748,33.307-44.928c6.286-18.871-12.151-46.862-42.15-67.879c-34.586-24.228-75.328-24.454-119.312-57.898
			c-35.756-27.187-27.625-81.932-27.625-81.932S684.017,307.592,704.538,343.748"/>
	</defs>
	<clipPath id="SVGID_20_">
		<use xlink:href="#SVGID_19_"  overflow="visible"/>
	</clipPath>
	
		<linearGradient id="SVGID_21_" gradientUnits="userSpaceOnUse" x1="623.356" y1="671.7617" x2="626.6376" y2="671.7617" gradientTransform="matrix(64.2982 0 0 -64.2982 -39382.6523 43555.1875)">
		<stop  offset="0" style="stop-color:#85CFC4"/>
		<stop  offset="0.0225" style="stop-color:#81C6BE"/>
		<stop  offset="0.2869" style="stop-color:#568A95"/>
		<stop  offset="0.5262" style="stop-color:#38647A"/>
		<stop  offset="0.7323" style="stop-color:#234E69"/>
		<stop  offset="0.8971" style="stop-color:#154060"/>
		<stop  offset="1" style="stop-color:#103C5C"/>
	</linearGradient>
	<rect x="684.017" y="235.765" clip-path="url(#SVGID_20_)" fill="url(#SVGID_21_)" width="230.067" height="252.637"/>
</g>
<g>
	<path d="M523.532,649.149c7.195-1.471,17.496-2.288,27.308-2.288c15.208,0,25.02,2.778,31.887,8.991
		c5.561,4.906,8.667,12.43,8.667,20.931c0,14.555-9.158,24.203-20.767,28.128v0.49c8.502,2.944,13.572,10.792,16.188,22.238
		c3.597,15.371,6.213,26,8.503,30.252h-14.716c-1.799-3.108-4.252-12.59-7.358-26.327c-3.271-15.207-9.158-20.931-22.076-21.421
		h-13.409v47.748h-14.226V649.149z M537.758,699.352h14.555c15.208,0,24.854-8.341,24.854-20.931
		c0-14.228-10.302-20.44-25.345-20.604c-6.869,0-11.774,0.654-14.064,1.308V699.352z"/>
	<path d="M674.947,706.219h-42.844v39.737h47.748v11.936h-61.974V647.679H677.4v11.936h-45.297v34.831h42.844V706.219z"/>
	<path d="M704.865,647.679h14.226v53.144h0.49c2.943-4.252,5.888-8.174,8.668-11.772l33.686-41.371h17.659l-39.899,46.767
		l43.007,63.446h-16.844l-36.302-54.124l-10.465,12.1v42.024h-14.226V647.679z"/>
	<path d="M799.864,647.679h14.226v98.277h47.098v11.936h-61.323V647.679z"/>
	<path d="M901.241,723.224l-11.445,34.668h-14.722l37.446-110.213h17.169l37.613,110.213h-15.208l-11.773-34.668H901.241z
		 M937.38,712.105l-10.792-31.724c-2.455-7.193-4.089-13.733-5.723-20.113h-0.334c-1.634,6.543-3.428,13.246-5.556,19.95
		l-10.792,31.887H937.38z"/>
	<path d="M1082.742,709.49c-0.82-15.371-1.801-33.851-1.635-47.585h-0.493c-3.762,12.917-8.338,26.654-13.9,41.862l-19.457,53.471
		h-10.792l-17.822-52.49c-5.236-15.535-9.652-29.762-12.76-42.843h-0.327c-0.327,13.734-1.141,32.214-2.121,48.729l-2.948,47.258
		h-13.567l7.685-110.213h18.149l18.803,53.308c4.582,13.573,8.345,25.673,11.119,37.119h0.493
		c2.781-11.119,6.704-23.219,11.613-37.119l19.623-53.308h18.149l6.864,110.213h-13.895L1082.742,709.49z"/>
</g>
<g>
	<path fill="#F7941E" d="M518.971,804.797v-23.039h6.272c3.172,0,5.569,0.965,7.19,2.894c1.623,1.929,2.434,4.777,2.434,8.543
		c0,3.857-0.815,6.755-2.446,8.693c-1.633,1.938-4.075,2.909-7.329,2.909H518.971z M522.845,800.99h2.11
		c2.113,0,3.64-0.612,4.578-1.833c0.937-1.221,1.407-3.211,1.407-5.963c0-2.612-0.489-4.531-1.463-5.759
		c-0.974-1.227-2.5-1.839-4.578-1.839h-2.054V800.99z"/>
	<path fill="#F7941E" d="M547.432,804.797v-23.039h13.333v3.746h-9.486v5.444h6.909v3.685h-6.909v6.235h9.9v3.929H547.432z"/>
	<path fill="#F7941E" d="M571.799,799.6l3.502-1.75c0.543,1.228,1.147,2.122,1.813,2.686c0.667,0.561,1.455,0.843,2.365,0.843
		c1.028,0,1.842-0.263,2.44-0.788c0.598-0.529,0.896-1.24,0.896-2.138c0-0.711-0.219-1.308-0.662-1.784
		c-0.44-0.48-1.235-0.959-2.386-1.433c-0.155-0.073-0.381-0.167-0.674-0.278c-2.014-0.827-3.416-1.525-4.206-2.105
		c-0.782-0.558-1.38-1.27-1.793-2.135c-0.414-0.865-0.62-1.846-0.62-2.938c0-1.859,0.618-3.368,1.854-4.528
		c1.237-1.16,2.852-1.74,4.847-1.74c1.747,0,3.201,0.423,4.364,1.27c1.163,0.846,2.016,2.099,2.557,3.759l-3.5,1.438
		c-0.433-1.032-0.944-1.782-1.532-2.249c-0.588-0.472-1.314-0.705-2.177-0.705c-0.836,0-1.497,0.218-1.979,0.656
		c-0.482,0.439-0.724,1.035-0.724,1.788c0,1.167,1.181,2.269,3.544,3.311c0.726,0.32,1.296,0.58,1.709,0.775
		c1.976,0.938,3.32,1.896,4.033,2.877c0.711,0.98,1.069,2.26,1.069,3.836c0,2.128-0.62,3.797-1.862,5.015
		c-1.24,1.218-2.946,1.826-5.116,1.826c-1.884,0-3.481-0.464-4.791-1.394C573.461,802.785,572.471,801.413,571.799,799.6z"/>
	<path fill="#F7941E" d="M599.285,804.797v-23.039h3.889v23.039H599.285z"/>
	<path fill="#F7941E" d="M629.361,804.797l-0.207-2.413c-0.645,0.958-1.407,1.667-2.29,2.118c-0.883,0.455-1.926,0.683-3.129,0.683
		c-2.446,0-4.359-1.073-5.744-3.22c-1.383-2.145-2.075-5.121-2.075-8.928c0-3.641,0.747-6.476,2.24-8.508
		c1.495-2.034,3.579-3.051,6.253-3.051c1.839,0,3.375,0.5,4.612,1.504c1.235,0.999,2.112,2.444,2.626,4.332l-3.502,0.974
		c-0.414-1.083-0.933-1.888-1.558-2.413c-0.625-0.528-1.379-0.791-2.261-0.791c-1.471,0-2.589,0.695-3.352,2.083
		s-1.144,3.432-1.144,6.133c0,2.603,0.38,4.595,1.138,5.989c0.758,1.394,1.841,2.089,3.248,2.089c1.103,0,2.014-0.413,2.736-1.237
		c0.721-0.826,1.165-1.967,1.33-3.422h-3.847v-3.617h7.653v11.695H629.361z"/>
	<path fill="#F7941E" d="M645,804.797v-23.039h4.123l5.902,11.574c0.45,0.897,0.868,1.804,1.254,2.724
		c0.386,0.916,0.739,1.846,1.061,2.784c-0.101-0.679-0.174-1.409-0.219-2.188c-0.047-0.778-0.069-1.611-0.069-2.499v-12.395h3.584
		v23.039h-3.584l-6.412-11.882c-0.349-0.673-0.719-1.477-1.11-2.416c-0.391-0.938-0.793-1.979-1.207-3.124
		c0.092,0.628,0.159,1.32,0.2,2.073c0.042,0.753,0.063,1.625,0.063,2.614v12.734H645z"/>
	<path fill="#F7941E" d="M690.881,798.206v-3.419h6.329v3.419H690.881z"/>
	<path fill="#F7941E" d="M727.662,804.797v-23.039h7.335c2.417,0,4.218,0.564,5.404,1.695c1.186,1.128,1.778,2.846,1.778,5.143
		c0,2.25-0.578,3.961-1.737,5.131c-1.158,1.172-2.849,1.756-5.074,1.756h-3.805v9.314H727.662z M731.563,791.832h2.868
		c1.415,0,2.415-0.25,3-0.743c0.583-0.497,0.875-1.327,0.875-2.493c0-1.176-0.292-2.009-0.875-2.506
		c-0.585-0.493-1.585-0.743-3-0.743h-2.868V791.832z"/>
	<path fill="#F7941E" d="M754.567,804.797v-23.039h6.949c2.6,0,4.536,0.564,5.805,1.695c1.269,1.128,1.902,2.858,1.902,5.19
		c0,1.497-0.325,2.743-0.979,3.743c-0.652,1.003-1.589,1.691-2.812,2.073l4.55,10.337h-4.151l-3.956-9.344h-3.53v9.344H754.567z
		 M758.345,791.801h3.363c1.242,0,2.153-0.257,2.738-0.772c0.583-0.517,0.875-1.327,0.875-2.433c0-1.093-0.292-1.896-0.875-2.413
		c-0.585-0.516-1.496-0.771-2.738-0.771h-3.363V791.801z"/>
	<path fill="#F7941E" d="M782.807,804.797v-23.039h3.889v23.039H782.807z"/>
	<path fill="#F7941E" d="M800.626,804.797v-23.039h4.123l5.902,11.574c0.45,0.897,0.868,1.804,1.254,2.724
		c0.386,0.916,0.739,1.846,1.061,2.784c-0.101-0.679-0.175-1.409-0.22-2.188c-0.046-0.778-0.069-1.611-0.069-2.499v-12.395h3.584
		v23.039h-3.584l-6.412-11.882c-0.349-0.673-0.719-1.477-1.11-2.416c-0.391-0.938-0.793-1.979-1.207-3.124
		c0.092,0.628,0.159,1.32,0.201,2.073s0.063,1.625,0.063,2.614v12.734H800.626z"/>
	<path fill="#F7941E" d="M833.487,804.797v-19.232h-5.392v-3.807h14.684v3.807h-5.391v19.232H833.487z"/>
	<path fill="#F7941E" d="M871.332,798.206v-3.419h6.325v3.419H871.332z"/>
	<path fill="#F7941E" d="M906.58,799.6l3.502-1.75c0.542,1.228,1.147,2.122,1.813,2.686c0.667,0.561,1.455,0.843,2.365,0.843
		c1.028,0,1.843-0.263,2.438-0.788c0.6-0.529,0.897-1.24,0.897-2.138c0-0.711-0.218-1.308-0.66-1.784
		c-0.442-0.48-1.237-0.959-2.388-1.433c-0.156-0.073-0.381-0.167-0.676-0.278c-2.013-0.827-3.416-1.525-4.204-2.105
		c-0.782-0.558-1.378-1.27-1.794-2.135c-0.41-0.865-0.619-1.846-0.619-2.938c0-1.859,0.619-3.368,1.855-4.528s2.852-1.74,4.845-1.74
		c1.747,0,3.201,0.423,4.364,1.27c1.163,0.846,2.016,2.099,2.558,3.759l-3.499,1.438c-0.437-1.032-0.945-1.782-1.532-2.249
		c-0.589-0.472-1.313-0.705-2.179-0.705c-0.836,0-1.496,0.218-1.98,0.656c-0.48,0.439-0.725,1.035-0.725,1.788
		c0,1.167,1.183,2.269,3.545,3.311c0.727,0.32,1.297,0.58,1.711,0.775c1.974,0.938,3.319,1.896,4.031,2.877
		c0.711,0.98,1.07,2.26,1.07,3.836c0,2.128-0.622,3.797-1.862,5.015s-2.944,1.826-5.117,1.826c-1.884,0-3.479-0.464-4.787-1.394
		C908.24,802.785,907.253,801.413,906.58,799.6z"/>
	<path fill="#F7941E" d="M932.423,793.332c0-3.724,0.753-6.63,2.259-8.719c1.51-2.09,3.596-3.135,6.262-3.135
		s4.755,1.045,6.268,3.135c1.513,2.089,2.269,4.995,2.269,8.719c0,3.704-0.759,6.604-2.274,8.703
		c-1.52,2.099-3.605,3.149-6.262,3.149c-2.646,0-4.729-1.051-6.245-3.149C933.183,799.936,932.423,797.036,932.423,793.332z
		 M936.339,793.332c0,2.608,0.391,4.589,1.173,5.935c0.778,1.346,1.926,2.019,3.432,2.019s2.653-0.673,3.436-2.019
		c0.781-1.346,1.172-3.326,1.172-5.935c0-2.631-0.391-4.627-1.172-5.989c-0.782-1.361-1.93-2.041-3.436-2.041
		s-2.653,0.68-3.432,2.041C936.729,788.705,936.339,790.701,936.339,793.332z"/>
	<path fill="#F7941E" d="M961.797,804.797v-23.039h3.929v19.11h8.658v3.929H961.797z"/>
	<path fill="#F7941E" d="M986.271,796.334v-14.576h3.861v14.763c0,1.711,0.308,2.948,0.927,3.714
		c0.615,0.763,1.608,1.144,2.977,1.144c1.451,0,2.489-0.368,3.108-1.105c0.618-0.737,0.933-1.99,0.933-3.752v-14.763h3.749v15.271
		c0,2.621-0.673,4.634-2.02,6.044c-1.346,1.406-3.271,2.111-5.771,2.111c-2.611,0-4.56-0.73-5.842-2.191
		C986.913,801.535,986.271,799.314,986.271,796.334z"/>
	<path fill="#F7941E" d="M1019.078,804.797v-19.232h-5.39v-3.807h14.683v3.807h-5.391v19.232H1019.078z"/>
	<path fill="#F7941E" d="M1040.634,804.797v-23.039h3.887v23.039H1040.634z"/>
	<path fill="#F7941E" d="M1057.268,793.332c0-3.724,0.75-6.63,2.259-8.719c1.51-2.09,3.596-3.135,6.259-3.135
		c2.666,0,4.755,1.045,6.268,3.135c1.512,2.089,2.269,4.995,2.269,8.719c0,3.704-0.757,6.604-2.275,8.703
		c-1.516,2.099-3.602,3.149-6.261,3.149c-2.647,0-4.727-1.051-6.242-3.149C1058.023,799.936,1057.268,797.036,1057.268,793.332z
		 M1061.184,793.332c0,2.608,0.391,4.589,1.172,5.935c0.779,1.346,1.923,2.019,3.43,2.019c1.509,0,2.652-0.673,3.435-2.019
		s1.173-3.326,1.173-5.935c0-2.631-0.391-4.627-1.173-5.989c-0.782-1.361-1.926-2.041-3.435-2.041c-1.507,0-2.65,0.68-3.43,2.041
		C1061.574,788.705,1061.184,790.701,1061.184,793.332z"/>
	<path fill="#F7941E" d="M1086.613,804.797v-23.039h4.12l5.902,11.574c0.449,0.897,0.868,1.804,1.257,2.724
		c0.384,0.916,0.736,1.846,1.057,2.784c-0.099-0.679-0.173-1.409-0.218-2.188c-0.045-0.778-0.07-1.611-0.07-2.499v-12.395h3.586
		v23.039h-3.586l-6.409-11.882c-0.352-0.673-0.721-1.477-1.111-2.416c-0.391-0.938-0.791-1.979-1.208-3.124
		c0.093,0.628,0.16,1.32,0.202,2.073c0.041,0.753,0.061,1.625,0.061,2.614v12.734H1086.613z"/>
</g>
</svg>
